<svg xmlns="http://www.w3.org/2000/svg" xmlns:xlink="http://www.w3.org/1999/xlink" contentStyleType="text/css" data-diagram-type="CLASS" height="1289px" preserveAspectRatio="none" style="width:962px;height:1289px;background:#FFFFFF;" version="1.1" viewBox="0 0 962 1289" width="962px" zoomAndPan="magnify"><?plantuml 1.2026.3beta5?><defs/><g><!--class User--><g class="entity" data-qualified-name="User" data-source-line="4" id="ent0002"><rect fill="#F1F1F1" height="210.9688" rx="2.5" ry="2.5" style="stroke:#181818;stroke-width:0.5;" width="219.1563" x="27.42" y="7"/><ellipse cx="116.793" cy="23" fill="#ADD1B2" rx="11" ry="11" style="stroke:#181818;stroke-width:1;"/><path d="M119.7618,28.6406 Q119.1837,28.9375 118.543,29.0781 Q117.9024,29.2344 117.1993,29.2344 Q114.6993,29.2344 113.3712,27.5938 Q112.0587,25.9375 112.0587,22.8125 Q112.0587,19.6875 113.3712,18.0313 Q114.6993,16.375 117.1993,16.375 Q117.9024,16.375 118.543,16.5313 Q119.1993,16.6875 119.7618,16.9844 L119.7618,19.7031 Q119.1368,19.125 118.543,18.8594 Q117.9493,18.5781 117.3243,18.5781 Q115.9805,18.5781 115.293,19.6563 Q114.6055,20.7188 114.6055,22.8125 Q114.6055,24.9063 115.293,25.9844 Q115.9805,27.0469 117.3243,27.0469 Q117.9493,27.0469 118.543,26.7813 Q119.1368,26.5 119.7618,25.9219 L119.7618,28.6406 Z " fill="#000000"/><text fill="#000000" font-family="sans-serif" font-size="14" lengthAdjust="spacing" textLength="31.9102" x="137.293" y="27.8467">User</text><line style="stroke:#181818;stroke-width:0.5;" x1="28.42" x2="245.5763" y1="39" y2="39"/><text fill="#000000" font-family="sans-serif" font-size="14" lengthAdjust="spacing" textLength="131.3389" x="33.42" y="55.9951">+firstName: String</text><text fill="#000000" font-family="sans-serif" font-size="14" lengthAdjust="spacing" textLength="129.2334" x="33.42" y="72.292">+lastName: String</text><text fill="#000000" font-family="sans-serif" font-size="14" lengthAdjust="spacing" textLength="101.2881" x="33.42" y="88.5889">+email: String</text><text fill="#000000" font-family="sans-serif" font-size="14" lengthAdjust="spacing" textLength="129.3906" x="33.42" y="104.8857">+password: String</text><text fill="#000000" font-family="sans-serif" font-size="14" lengthAdjust="spacing" textLength="144.416" x="33.42" y="121.1826">+token: String [0..1]</text><text fill="#000000" font-family="sans-serif" font-size="14" lengthAdjust="spacing" textLength="207.1563" x="33.42" y="137.4795">+tokenExpiration: Date [0..1]</text><text fill="#000000" font-family="sans-serif" font-size="14" lengthAdjust="spacing" textLength="150.0352" x="33.42" y="153.7764">+avatar: String [0..1]</text><text fill="#000000" font-family="sans-serif" font-size="14" lengthAdjust="spacing" textLength="117.9883" x="33.42" y="170.0732">+address: String</text><text fill="#000000" font-family="sans-serif" font-size="14" lengthAdjust="spacing" textLength="141.2236" x="33.42" y="186.3701">+postalCode: String</text><text fill="#000000" font-family="sans-serif" font-size="14" lengthAdjust="spacing" textLength="106.4902" x="33.42" y="202.667">+phone: String</text><line style="stroke:#181818;stroke-width:0.5;" x1="28.42" x2="245.5763" y1="209.9688" y2="209.9688"/></g><polygon fill="none" points="132.8466,217.9688,139.0547,238.2286,125.0655,237.678" style="stroke:#181818;stroke-width:1;"/><line style="stroke:#181818;stroke-width:1;" x1="132.0601" x2="132" y1="237.9533" y2="239.48"/><!--class Owner--><g class="entity" data-qualified-name="Owner" data-source-line="17" id="ent0003"><rect fill="#F1F1F1" height="48" rx="2.5" ry="2.5" style="stroke:#181818;stroke-width:0.5;" width="77.7119" x="142.15" y="500.9"/><ellipse cx="157.15" cy="516.9" fill="#ADD1B2" rx="11" ry="11" style="stroke:#181818;stroke-width:1;"/><path d="M160.1188,522.5406 Q159.5406,522.8375 158.9,522.9781 Q158.2594,523.1344 157.5563,523.1344 Q155.0563,523.1344 153.7281,521.4938 Q152.4156,519.8375 152.4156,516.7125 Q152.4156,513.5875 153.7281,511.9313 Q155.0563,510.275 157.5563,510.275 Q158.2594,510.275 158.9,510.4313 Q159.5563,510.5875 160.1188,510.8844 L160.1188,513.6031 Q159.4938,513.025 158.9,512.7594 Q158.3063,512.4781 157.6813,512.4781 Q156.3375,512.4781 155.65,513.5563 Q154.9625,514.6188 154.9625,516.7125 Q154.9625,518.8063 155.65,519.8844 Q156.3375,520.9469 157.6813,520.9469 Q158.3063,520.9469 158.9,520.6813 Q159.4938,520.4 160.1188,519.8219 L160.1188,522.5406 Z " fill="#000000"/><text fill="#000000" font-family="sans-serif" font-size="14" lengthAdjust="spacing" textLength="45.7119" x="171.15" y="521.7467">Owner</text><line style="stroke:#181818;stroke-width:0.5;" x1="143.15" x2="218.8619" y1="532.9" y2="532.9"/><line style="stroke:#181818;stroke-width:0.5;" x1="143.15" x2="218.8619" y1="540.9" y2="540.9"/></g><!--class Customer--><g class="entity" data-qualified-name="Customer" data-source-line="20" id="ent0004"><rect fill="#F1F1F1" height="48" rx="2.5" ry="2.5" style="stroke:#181818;stroke-width:0.5;" width="100.0039" x="7" y="500.9"/><ellipse cx="22" cy="516.9" fill="#ADD1B2" rx="11" ry="11" style="stroke:#181818;stroke-width:1;"/><path d="M24.9688,522.5406 Q24.3906,522.8375 23.75,522.9781 Q23.1094,523.1344 22.4063,523.1344 Q19.9063,523.1344 18.5781,521.4938 Q17.2656,519.8375 17.2656,516.7125 Q17.2656,513.5875 18.5781,511.9313 Q19.9063,510.275 22.4063,510.275 Q23.1094,510.275 23.75,510.4313 Q24.4063,510.5875 24.9688,510.8844 L24.9688,513.6031 Q24.3438,513.025 23.75,512.7594 Q23.1563,512.4781 22.5313,512.4781 Q21.1875,512.4781 20.5,513.5563 Q19.8125,514.6188 19.8125,516.7125 Q19.8125,518.8063 20.5,519.8844 Q21.1875,520.9469 22.5313,520.9469 Q23.1563,520.9469 23.75,520.6813 Q24.3438,520.4 24.9688,519.8219 L24.9688,522.5406 Z " fill="#000000"/><text fill="#000000" font-family="sans-serif" font-size="14" lengthAdjust="spacing" textLength="68.0039" x="36" y="521.7467">Customer</text><line style="stroke:#181818;stroke-width:0.5;" x1="8" x2="106.0039" y1="532.9" y2="532.9"/><line style="stroke:#181818;stroke-width:0.5;" x1="8" x2="106.0039" y1="540.9" y2="540.9"/></g><!--class Restaurant--><g class="entity" data-qualified-name="Restaurant" data-source-line="23" id="ent0005"><rect fill="#F1F1F1" height="259.8594" rx="2.5" ry="2.5" style="stroke:#181818;stroke-width:0.5;" width="293.4766" x="328.26" y="394.97"/><ellipse cx="432.1116" cy="410.97" fill="#ADD1B2" rx="11" ry="11" style="stroke:#181818;stroke-width:1;"/><path d="M435.0803,416.6106 Q434.5022,416.9075 433.8616,417.0481 Q433.2209,417.2044 432.5178,417.2044 Q430.0178,417.2044 428.6897,415.5638 Q427.3772,413.9075 427.3772,410.7825 Q427.3772,407.6575 428.6897,406.0013 Q430.0178,404.345 432.5178,404.345 Q433.2209,404.345 433.8616,404.5013 Q434.5178,404.6575 435.0803,404.9544 L435.0803,407.6731 Q434.4553,407.095 433.8616,406.8294 Q433.2678,406.5481 432.6428,406.5481 Q431.2991,406.5481 430.6116,407.6263 Q429.9241,408.6888 429.9241,410.7825 Q429.9241,412.8763 430.6116,413.9544 Q431.2991,415.0169 432.6428,415.0169 Q433.2678,415.0169 433.8616,414.7513 Q434.4553,414.47 435.0803,413.8919 L435.0803,416.6106 Z " fill="#000000"/><text fill="#000000" font-family="sans-serif" font-size="14" lengthAdjust="spacing" textLength="77.2734" x="452.6116" y="415.8167">Restaurant</text><line style="stroke:#181818;stroke-width:0.5;" x1="329.26" x2="620.7366" y1="426.97" y2="426.97"/><text fill="#000000" font-family="sans-serif" font-size="14" lengthAdjust="spacing" textLength="102.3818" x="334.26" y="443.9651">+name: String</text><text fill="#000000" font-family="sans-serif" font-size="14" lengthAdjust="spacing" textLength="182.6084" x="334.26" y="460.262">+description: String [0..1]</text><text fill="#000000" font-family="sans-serif" font-size="14" lengthAdjust="spacing" textLength="117.9883" x="334.26" y="476.5589">+address: String</text><text fill="#000000" font-family="sans-serif" font-size="14" lengthAdjust="spacing" textLength="141.2236" x="334.26" y="492.8557">+postalCode: String</text><text fill="#000000" font-family="sans-serif" font-size="14" lengthAdjust="spacing" textLength="123.2861" x="334.26" y="509.1526">+url: String [0..1]</text><text fill="#000000" font-family="sans-serif" font-size="14" lengthAdjust="spacing" textLength="168.4033" x="334.26" y="525.4495">+shippingCosts: Double</text><text fill="#000000" font-family="sans-serif" font-size="14" lengthAdjust="spacing" textLength="281.4766" x="334.26" y="541.7464">+/averageServiceMinutes: Double [0..1]</text><text fill="#000000" font-family="sans-serif" font-size="14" lengthAdjust="spacing" textLength="143.377" x="334.26" y="558.0432">+email: String [0..1]</text><text fill="#000000" font-family="sans-serif" font-size="14" lengthAdjust="spacing" textLength="148.5791" x="334.26" y="574.3401">+phone: String [0..1]</text><text fill="#000000" font-family="sans-serif" font-size="14" lengthAdjust="spacing" textLength="134.6748" x="334.26" y="590.637">+logo: String [0..1]</text><text fill="#000000" font-family="sans-serif" font-size="14" lengthAdjust="spacing" textLength="180.4209" x="334.26" y="606.9339">+heroImage: String [0..1]</text><text fill="#000000" font-family="sans-serif" font-size="14" lengthAdjust="spacing" textLength="217.2461" x="334.26" y="623.2307">+status: Enum {online, offline,</text><text fill="#000000" font-family="sans-serif" font-size="14" lengthAdjust="spacing" textLength="193.498" x="338.7102" y="639.5276">closed, temporarily closed}</text><line style="stroke:#181818;stroke-width:0.5;" x1="329.26" x2="620.7366" y1="646.8294" y2="646.8294"/></g><!--class RestaurantCategory--><g class="entity" data-qualified-name="RestaurantCategory" data-source-line="38" id="ent0006"><rect fill="#F1F1F1" height="64.2969" rx="2.5" ry="2.5" style="stroke:#181818;stroke-width:0.5;" width="173.2236" x="306.39" y="80.33"/><ellipse cx="321.39" cy="96.33" fill="#ADD1B2" rx="11" ry="11" style="stroke:#181818;stroke-width:1;"/><path d="M324.3588,101.9706 Q323.7806,102.2675 323.14,102.4081 Q322.4994,102.5644 321.7963,102.5644 Q319.2963,102.5644 317.9681,100.9237 Q316.6556,99.2675 316.6556,96.1425 Q316.6556,93.0175 317.9681,91.3612 Q319.2963,89.705 321.7963,89.705 Q322.4994,89.705 323.14,89.8612 Q323.7963,90.0175 324.3588,90.3144 L324.3588,93.0331 Q323.7338,92.455 323.14,92.1894 Q322.5463,91.9081 321.9213,91.9081 Q320.5775,91.9081 319.89,92.9862 Q319.2025,94.0487 319.2025,96.1425 Q319.2025,98.2362 319.89,99.3144 Q320.5775,100.3769 321.9213,100.3769 Q322.5463,100.3769 323.14,100.1112 Q323.7338,99.83 324.3588,99.2519 L324.3588,101.9706 Z " fill="#000000"/><text fill="#000000" font-family="sans-serif" font-size="14" lengthAdjust="spacing" textLength="141.2236" x="335.39" y="101.1767">RestaurantCategory</text><line style="stroke:#181818;stroke-width:0.5;" x1="307.39" x2="478.6136" y1="112.33" y2="112.33"/><text fill="#000000" font-family="sans-serif" font-size="14" lengthAdjust="spacing" textLength="102.3818" x="312.39" y="129.3251">+name: String</text><line style="stroke:#181818;stroke-width:0.5;" x1="307.39" x2="478.6136" y1="136.6269" y2="136.6269"/></g><!--class Commission--><g class="entity" data-qualified-name="Commission" data-source-line="42" id="ent0007"><rect fill="#F1F1F1" height="80.5938" rx="2.5" ry="2.5" style="stroke:#181818;stroke-width:0.5;" width="172.3438" x="514.83" y="72.19"/><ellipse cx="550.272" cy="88.19" fill="#ADD1B2" rx="11" ry="11" style="stroke:#181818;stroke-width:1;"/><path d="M553.2408,93.8306 Q552.6627,94.1275 552.022,94.2681 Q551.3814,94.4244 550.6783,94.4244 Q548.1783,94.4244 546.8502,92.7838 Q545.5377,91.1275 545.5377,88.0025 Q545.5377,84.8775 546.8502,83.2213 Q548.1783,81.565 550.6783,81.565 Q551.3814,81.565 552.022,81.7213 Q552.6783,81.8775 553.2408,82.1744 L553.2408,84.8931 Q552.6158,84.315 552.022,84.0494 Q551.4283,83.7681 550.8033,83.7681 Q549.4595,83.7681 548.772,84.8463 Q548.0845,85.9088 548.0845,88.0025 Q548.0845,90.0963 548.772,91.1744 Q549.4595,92.2369 550.8033,92.2369 Q551.4283,92.2369 552.022,91.9713 Q552.6158,91.69 553.2408,91.1119 L553.2408,93.8306 Z " fill="#000000"/><text fill="#000000" font-family="sans-serif" font-size="14" font-weight="700" lengthAdjust="spacing" textLength="94.917" x="568.8147" y="93.0367">Commission</text><line style="stroke:#181818;stroke-width:0.5;" x1="515.83" x2="686.1737" y1="104.19" y2="104.19"/><text fill="#000000" font-family="sans-serif" font-size="14" lengthAdjust="spacing" textLength="11.7305" x="520.83" y="121.1851">+</text><text fill="#000000" font-family="sans-serif" font-size="14" font-weight="700" lengthAdjust="spacing" textLength="43.4971" x="532.5605" y="121.1851">name</text><text fill="#000000" font-family="sans-serif" font-size="14" lengthAdjust="spacing" textLength="50.9482" x="576.0575" y="121.1851">: String</text><text fill="#000000" font-family="sans-serif" font-size="14" lengthAdjust="spacing" textLength="11.7305" x="520.83" y="137.482">+</text><text fill="#000000" font-family="sans-serif" font-size="14" font-weight="700" lengthAdjust="spacing" textLength="89.8379" x="532.5605" y="137.482">percentage</text><text fill="#000000" font-family="sans-serif" font-size="14" lengthAdjust="spacing" textLength="58.7754" x="622.3984" y="137.482">: Double</text><line style="stroke:#181818;stroke-width:0.5;" x1="515.83" x2="686.1737" y1="144.7838" y2="144.7838"/></g><!--class Product--><g class="entity" data-qualified-name="Product" data-source-line="47" id="ent0008"><rect fill="#F1F1F1" height="145.7813" rx="2.5" ry="2.5" style="stroke:#181818;stroke-width:0.5;" width="194.6084" x="341.7" y="1128.5"/><ellipse cx="407.8992" cy="1144.5" fill="#ADD1B2" rx="11" ry="11" style="stroke:#181818;stroke-width:1;"/><path d="M410.868,1150.1406 Q410.2898,1150.4375 409.6492,1150.5781 Q409.0086,1150.7344 408.3055,1150.7344 Q405.8055,1150.7344 404.4773,1149.0938 Q403.1648,1147.4375 403.1648,1144.3125 Q403.1648,1141.1875 404.4773,1139.5313 Q405.8055,1137.875 408.3055,1137.875 Q409.0086,1137.875 409.6492,1138.0313 Q410.3055,1138.1875 410.868,1138.4844 L410.868,1141.2031 Q410.243,1140.625 409.6492,1140.3594 Q409.0555,1140.0781 408.4305,1140.0781 Q407.0867,1140.0781 406.3992,1141.1563 Q405.7117,1142.2188 405.7117,1144.3125 Q405.7117,1146.4063 406.3992,1147.4844 Q407.0867,1148.5469 408.4305,1148.5469 Q409.0555,1148.5469 409.6492,1148.2813 Q410.243,1148 410.868,1147.4219 L410.868,1150.1406 Z " fill="#000000"/><text fill="#000000" font-family="sans-serif" font-size="14" lengthAdjust="spacing" textLength="53.71" x="428.3992" y="1149.3467">Product</text><line style="stroke:#181818;stroke-width:0.5;" x1="342.7" x2="535.3084" y1="1160.5" y2="1160.5"/><text fill="#000000" font-family="sans-serif" font-size="14" lengthAdjust="spacing" textLength="102.3818" x="347.7" y="1177.4951">+name: String</text><text fill="#000000" font-family="sans-serif" font-size="14" lengthAdjust="spacing" textLength="182.6084" x="347.7" y="1193.792">+description: String [0..1]</text><text fill="#000000" font-family="sans-serif" font-size="14" lengthAdjust="spacing" textLength="105.3486" x="347.7" y="1210.0889">+price: Double</text><text fill="#000000" font-family="sans-serif" font-size="14" lengthAdjust="spacing" textLength="148.374" x="347.7" y="1226.3857">+image: String [0..1]</text><text fill="#000000" font-family="sans-serif" font-size="14" lengthAdjust="spacing" textLength="150.9238" x="347.7" y="1242.6826">+order: Integer [0..1]</text><text fill="#000000" font-family="sans-serif" font-size="14" lengthAdjust="spacing" textLength="153.7197" x="347.7" y="1258.9795">+availability: Boolean</text><line style="stroke:#181818;stroke-width:0.5;" x1="342.7" x2="535.3084" y1="1266.2813" y2="1266.2813"/></g><!--class ProductCategory--><g class="entity" data-qualified-name="ProductCategory" data-source-line="56" id="ent0009"><rect fill="#F1F1F1" height="64.2969" rx="2.5" ry="2.5" style="stroke:#181818;stroke-width:0.5;" width="149.6602" x="563.17" y="979.05"/><ellipse cx="578.17" cy="995.05" fill="#ADD1B2" rx="11" ry="11" style="stroke:#181818;stroke-width:1;"/><path d="M581.1388,1000.6906 Q580.5606,1000.9875 579.92,1001.1281 Q579.2794,1001.2844 578.5763,1001.2844 Q576.0763,1001.2844 574.7481,999.6438 Q573.4356,997.9875 573.4356,994.8625 Q573.4356,991.7375 574.7481,990.0813 Q576.0763,988.425 578.5763,988.425 Q579.2794,988.425 579.92,988.5813 Q580.5763,988.7375 581.1388,989.0344 L581.1388,991.7531 Q580.5138,991.175 579.92,990.9094 Q579.3263,990.6281 578.7013,990.6281 Q577.3575,990.6281 576.67,991.7063 Q575.9825,992.7688 575.9825,994.8625 Q575.9825,996.9563 576.67,998.0344 Q577.3575,999.0969 578.7013,999.0969 Q579.3263,999.0969 579.92,998.8313 Q580.5138,998.55 581.1388,997.9719 L581.1388,1000.6906 Z " fill="#000000"/><text fill="#000000" font-family="sans-serif" font-size="14" lengthAdjust="spacing" textLength="117.6602" x="592.17" y="999.8967">ProductCategory</text><line style="stroke:#181818;stroke-width:0.5;" x1="564.17" x2="711.8302" y1="1011.05" y2="1011.05"/><text fill="#000000" font-family="sans-serif" font-size="14" lengthAdjust="spacing" textLength="102.3818" x="569.17" y="1028.0451">+name: String</text><line style="stroke:#181818;stroke-width:0.5;" x1="564.17" x2="711.8302" y1="1035.3469" y2="1035.3469"/></g><!--class Order--><g class="entity" data-qualified-name="Order" data-source-line="60" id="ent0010"><rect fill="#F1F1F1" height="162.0781" rx="2.5" ry="2.5" style="stroke:#181818;stroke-width:0.5;" width="188.9482" x="151.53" y="731.83"/><ellipse cx="221.7385" cy="747.83" fill="#ADD1B2" rx="11" ry="11" style="stroke:#181818;stroke-width:1;"/><path d="M224.7072,753.4706 Q224.1291,753.7675 223.4885,753.9081 Q222.8479,754.0644 222.1447,754.0644 Q219.6447,754.0644 218.3166,752.4237 Q217.0041,750.7675 217.0041,747.6425 Q217.0041,744.5175 218.3166,742.8612 Q219.6447,741.205 222.1447,741.205 Q222.8479,741.205 223.4885,741.3612 Q224.1447,741.5175 224.7072,741.8144 L224.7072,744.5331 Q224.0822,743.955 223.4885,743.6894 Q222.8947,743.4081 222.2697,743.4081 Q220.926,743.4081 220.2385,744.4862 Q219.551,745.5487 219.551,747.6425 Q219.551,749.7362 220.2385,750.8144 Q220.926,751.8769 222.2697,751.8769 Q222.8947,751.8769 223.4885,751.6112 Q224.0822,751.33 224.7072,750.7519 L224.7072,753.4706 Z " fill="#000000"/><text fill="#000000" font-family="sans-serif" font-size="14" lengthAdjust="spacing" textLength="40.0313" x="242.2385" y="752.6767">Order</text><line style="stroke:#181818;stroke-width:0.5;" x1="152.53" x2="339.4782" y1="763.83" y2="763.83"/><text fill="#000000" font-family="sans-serif" font-size="14" lengthAdjust="spacing" textLength="123.0605" x="157.53" y="780.8251">+createdAt: Date</text><text fill="#000000" font-family="sans-serif" font-size="14" lengthAdjust="spacing" textLength="161.6221" x="157.53" y="797.122">+startedAt: Date [0..1]</text><text fill="#000000" font-family="sans-serif" font-size="14" lengthAdjust="spacing" textLength="141.7842" x="157.53" y="813.4189">+sentAt: Date [0..1]</text><text fill="#000000" font-family="sans-serif" font-size="14" lengthAdjust="spacing" textLength="176.9482" x="157.53" y="829.7157">+deliveredAt: Date [0..1]</text><text fill="#000000" font-family="sans-serif" font-size="14" lengthAdjust="spacing" textLength="105.3486" x="157.53" y="846.0126">+price: Double</text><text fill="#000000" font-family="sans-serif" font-size="14" lengthAdjust="spacing" textLength="117.9883" x="157.53" y="862.3095">+address: String</text><text fill="#000000" font-family="sans-serif" font-size="14" lengthAdjust="spacing" textLength="168.4033" x="157.53" y="878.6064">+shippingCosts: Double</text><line style="stroke:#181818;stroke-width:0.5;" x1="152.53" x2="339.4782" y1="885.9081" y2="885.9081"/></g><!--class OrderProduct--><g class="entity" data-qualified-name="OrderProduct" data-source-line="70" id="ent0011"><rect fill="#F1F1F1" height="80.5938" rx="2.5" ry="2.5" style="stroke:#181818;stroke-width:0.5;" width="152.3145" x="162.84" y="970.9"/><ellipse cx="189.798" cy="986.9" fill="#ADD1B2" rx="11" ry="11" style="stroke:#181818;stroke-width:1;"/><path d="M192.7667,992.5406 Q192.1886,992.8375 191.548,992.9781 Q190.9073,993.1344 190.2042,993.1344 Q187.7042,993.1344 186.3761,991.4938 Q185.0636,989.8375 185.0636,986.7125 Q185.0636,983.5875 186.3761,981.9313 Q187.7042,980.275 190.2042,980.275 Q190.9073,980.275 191.548,980.4313 Q192.2042,980.5875 192.7667,980.8844 L192.7667,983.6031 Q192.1417,983.025 191.548,982.7594 Q190.9542,982.4781 190.3292,982.4781 Q188.9855,982.4781 188.298,983.5563 Q187.6105,984.6188 187.6105,986.7125 Q187.6105,988.8063 188.298,989.8844 Q188.9855,990.9469 190.3292,990.9469 Q190.9542,990.9469 191.548,990.6813 Q192.1417,990.4 192.7667,989.8219 L192.7667,992.5406 Z " fill="#000000"/><text fill="#000000" font-family="sans-serif" font-size="14" lengthAdjust="spacing" textLength="93.7412" x="206.4553" y="991.7467">OrderProduct</text><line style="stroke:#181818;stroke-width:0.5;" x1="163.84" x2="314.1545" y1="1002.9" y2="1002.9"/><text fill="#000000" font-family="sans-serif" font-size="14" lengthAdjust="spacing" textLength="129.623" x="168.84" y="1019.8951">+quantity: Integer</text><text fill="#000000" font-family="sans-serif" font-size="14" lengthAdjust="spacing" textLength="140.3145" x="168.84" y="1036.192">+unityPrice: Double</text><line style="stroke:#181818;stroke-width:0.5;" x1="163.84" x2="314.1545" y1="1043.4938" y2="1043.4938"/></g><ellipse cx="126" cy="1011.2" fill="#181818" rx="2" ry="2" style="stroke:#181818;stroke-width:1;"/><!--reverse link User to Customer--><g class="link" data-entity-1="ent0002" data-entity-2="ent0004" data-link-type="association" data-source-line="75" id="lnk12"><path codeLine="75" d="M132,239.48 C132,239.48 81.05,432.7 63.14,500.62" fill="none" id="User-backto-Customer" style="stroke:#181818;stroke-width:1;"/></g><!--reverse link User to Owner--><g class="link" data-entity-1="ent0002" data-entity-2="ent0003" data-link-type="association" data-source-line="76" id="lnk13"><path codeLine="76" d="M132,239.48 C132,239.48 165.29,432.7 176.99,500.62" fill="none" id="User-backto-Owner" style="stroke:#181818;stroke-width:1;"/><path d="M158,303.97 L158,328.97 L311,328.97 L311,313.97 L301,303.97 L158,303.97" fill="#D3D3D3" style="stroke:#181818;stroke-width:0.5;"/><path d="M301,303.97 L301,313.97 L311,313.97 L301,303.97" fill="#D3D3D3" style="stroke:#181818;stroke-width:0.5;"/><text fill="#000000" font-family="sans-serif" font-size="13" lengthAdjust="spacing" textLength="132.6787" x="164" y="321.0369">{complete, disjoint}</text></g><!--link Customer to Owner--><!--link Owner to Restaurant--><g class="link" data-entity-1="ent0003" data-entity-2="ent0005" data-link-type="dependency" data-source-line="81" id="lnk15"><path codeLine="81" d="M220.35,524.9 C248.43,524.9 282.13,524.9 321.83,524.9" fill="none" id="Owner-to-Restaurant" style="stroke:#181818;stroke-width:1;"/><polygon fill="#181818" points="327.83,524.9,318.83,520.9,322.83,524.9,318.83,528.9,327.83,524.9" style="stroke:#181818;stroke-width:1;"/><polygon fill="#000000" points="247.06,513.4664,238.0149,510.5275,238.0149,516.4053,247.06,513.4664" style="stroke:#000000;stroke-width:1;"/><text fill="#000000" font-family="sans-serif" font-size="13" lengthAdjust="spacing" textLength="59.8584" x="251.06" y="517.9669">manages</text></g><!--link Customer to Order--><g class="link" data-entity-1="ent0004" data-entity-2="ent0010" data-link-type="dependency" data-source-line="82" id="lnk16"><path codeLine="82" d="M67.89,549.39 C80.45,575.76 102.3,619.48 125,654.83 C141.56,680.6 157.5469,702.6857 176.1669,726.7357" fill="none" id="Customer-to-Order" style="stroke:#181818;stroke-width:1;"/><polygon fill="#181818" points="179.84,731.48,177.4932,721.9148,176.7791,727.5264,171.1675,726.8123,179.84,731.48" style="stroke:#181818;stroke-width:1;"/><polygon fill="#000000" points="163.6055,697.6639,161.4005,688.4125,156.3838,691.4754,163.6055,697.6639" style="stroke:#000000;stroke-width:1;"/><text fill="#000000" font-family="sans-serif" font-size="13" lengthAdjust="spacing" textLength="41.7485" x="170" y="697.8969">places</text></g><!--link Restaurant to Product--><!--link Restaurant to Product--><g class="link" data-entity-1="ent0005" data-entity-2="ent0008" data-link-type="association" data-source-line="87" id="lnk19"><path codeLine="87" d="M486.46,655.08 C487.08,665.14 487.61,675.15 488,684.83 C494.65,847.74 489.28,888.99 476,1051.5 C474.29,1072.44 475.28,1077.93 471,1098.5 C468.98,1108.21 466.41,1118.31 463.6,1128.22" fill="none" id="Restaurant-Product" style="stroke:#181818;stroke-width:1;"/><polygon fill="#000000" points="490.7587,937.4606,494.1307,928.5679,488.2597,928.2842,490.7587,937.4606" style="stroke:#000000;stroke-width:1;"/><text fill="#000000" font-family="sans-serif" font-size="13" lengthAdjust="spacing" textLength="42.5801" x="500" y="936.9669">serves</text><text fill="#000000" font-family="sans-serif" font-size="13" lengthAdjust="spacing" textLength="8.271" x="478.8992" y="675.1104">1</text><text fill="#000000" font-family="sans-serif" font-size="13" lengthAdjust="spacing" textLength="6.5" x="459.7504" y="1117.3524">*</text></g><!--link Product to Order--><!--link Restaurant to Order--><g class="link" data-entity-1="ent0005" data-entity-2="ent0010" data-link-type="association" data-source-line="88" id="lnk20"><path codeLine="88" d="M370.85,655.08 C362.77,665.14 354.75,675.15 347,684.83 C334.94,699.9 322.11,716 309.77,731.5" fill="none" id="Restaurant-Order" style="stroke:#181818;stroke-width:1;"/><polygon fill="#000000" points="348.8783,697.3021,356.8213,692.0715,352.2298,688.4017,348.8783,697.3021" style="stroke:#000000;stroke-width:1;"/><text fill="#000000" font-family="sans-serif" font-size="13" lengthAdjust="spacing" textLength="51.2827" x="361" y="697.8969">delivers</text><text fill="#000000" font-family="sans-serif" font-size="13" lengthAdjust="spacing" textLength="8.271" x="356.6055" y="675.1104">1</text><text fill="#000000" font-family="sans-serif" font-size="13" lengthAdjust="spacing" textLength="6.5" x="309.2042" y="720.6579">*</text></g><!--link RestaurantCategory to Restaurant--><g class="link" data-entity-1="ent0006" data-entity-2="ent0005" data-link-type="association" data-source-line="90" id="lnk21"><path codeLine="90" d="M399.3,145.01 C409.86,197.84 431.69,307.11 449.21,394.79" fill="none" id="RestaurantCategory-Restaurant" style="stroke:#181818;stroke-width:1;"/><polygon fill="#000000" points="446.0203,311.6333,444.9106,321.0789,450.6746,319.9272,446.0203,311.6333" style="stroke:#000000;stroke-width:1;"/><text fill="#000000" font-family="sans-serif" font-size="13" lengthAdjust="spacing" textLength="66.9741" x="456" y="321.0369">belongsTo</text><text fill="#000000" font-family="sans-serif" font-size="13" lengthAdjust="spacing" textLength="8.271" x="391.7639" y="164.7206">1</text><text fill="#000000" font-family="sans-serif" font-size="13" lengthAdjust="spacing" textLength="6.5" x="441.5601" y="383.9052">*</text></g><!--link Commission to Restaurant--><g class="link" data-entity-1="ent0007" data-entity-2="ent0005" data-link-type="association" data-source-line="92" id="lnk22"><path codeLine="92" d="M590.9,152.93 C577.97,202.65 554.42,290.62 531,364.97 C527.97,374.59 524.74,384.51 521.42,394.47" fill="none" id="Commission-Restaurant" style="stroke:#181818;stroke-width:2;"/><polygon fill="#000000" points="715.5126,281.3416,720.8374,273.4614,715.1886,271.8365,715.5126,281.3416" style="stroke:#000000;stroke-width:1;"/><text fill="#000000" font-family="sans-serif" font-size="13" font-weight="700" lengthAdjust="spacing" textLength="72.522" x="725.8948" y="281.0369">applies to</text><path d="M564,290.1028 L564,360.1028 L947,360.1028 L947,300.1028 L937,290.1028 L564,290.1028" fill="#FEFFDD" style="stroke:#181818;stroke-width:0.5;"/><path d="M937,290.1028 L937,300.1028 L947,300.1028 L937,290.1028" fill="#FEFFDD" style="stroke:#181818;stroke-width:0.5;"/><text fill="#000000" font-family="sans-serif" font-size="13" font-weight="700" lengthAdjust="spacing" textLength="28.9644" x="570" y="307.1697">BR1</text><text fill="#000000" font-family="sans-serif" font-size="13" lengthAdjust="spacing" textLength="279.2588" x="598.9644" y="307.1697">: It is not allowed to switch to the free plan</text><text fill="#000000" font-family="sans-serif" font-size="13" lengthAdjust="spacing" textLength="362.3115" x="570" y="322.3025">if there are existing orders and the current plan is paid.</text><text fill="#000000" font-family="sans-serif" font-size="13" font-weight="700" lengthAdjust="spacing" textLength="28.9644" x="570" y="337.4353">BR2</text><text fill="#000000" font-family="sans-serif" font-size="13" lengthAdjust="spacing" textLength="309.4229" x="598.9644" y="337.4353">: An owner can only have one restaurant with a</text><text fill="#000000" font-family="sans-serif" font-size="13" lengthAdjust="spacing" textLength="111.5728" x="570" y="352.5681">free commission.</text><text fill="#000000" font-family="sans-serif" font-size="13" lengthAdjust="spacing" textLength="8.271" x="580.5868" y="172.9485">1</text><text fill="#000000" font-family="sans-serif" font-size="13" lengthAdjust="spacing" textLength="6.5" x="517.8083" y="383.9975">*</text></g><!--link ProductCategory to Product--><g class="link" data-entity-1="ent0009" data-entity-2="ent0008" data-link-type="association" data-source-line="100" id="lnk23"><path codeLine="100" d="M604.69,1043.7 C580.35,1066.72 546.34,1098.89 515.46,1128.09" fill="none" id="ProductCategory-Product" style="stroke:#181818;stroke-width:1;"/><polygon fill="#000000" points="570.6327,1086.6308,562.0417,1090.7107,566.0805,1094.9811,570.6327,1086.6308" style="stroke:#000000;stroke-width:1;"/><text fill="#000000" font-family="sans-serif" font-size="13" lengthAdjust="spacing" textLength="66.9741" x="576" y="1094.5669">belongsTo</text><text fill="#000000" font-family="sans-serif" font-size="13" lengthAdjust="spacing" textLength="8.271" x="589.6036" y="1063.4049">1</text><text fill="#000000" font-family="sans-serif" font-size="13" lengthAdjust="spacing" textLength="6.5" x="516.4851" y="1117.4619">*</text></g><!--link Order to apoint25--><g class="link" data-entity-1="ent0010" data-entity-2="ent0026" data-link-type="association" data-source-line="103" id="lnk27"><path d="M191.67,894.22 C175.99,918.49 159.27,945.46 145,970.9 C136.85,985.45 128.68,1004.02 126.54,1008.95" fill="none" id="Order-apoint25" style="stroke:#181818;stroke-width:1;"/><polygon fill="#000000" points="174.5316,936.8146,181.5528,930.3995,176.4412,927.4977,174.5316,936.8146" style="stroke:#000000;stroke-width:1;"/><text fill="#000000" font-family="sans-serif" font-size="13" lengthAdjust="spacing" textLength="53.8726" x="186" y="936.9669">includes</text><text fill="#000000" font-family="sans-serif" font-size="13" lengthAdjust="spacing" textLength="6.5" x="180.7643" y="913.9282">*</text></g><!--link apoint25 to Product--><g class="link" data-entity-1="ent0026" data-entity-2="ent0008" data-link-type="association" data-source-line="103" id="lnk28"><path d="M126.33,1013.61 C127.69,1019.13 133.32,1039.6 145,1051.5 C199.41,1106.92 278.79,1145.43 341.35,1169.38" fill="none" id="apoint25-Product" style="stroke:#181818;stroke-width:1;"/><text fill="#000000" font-family="sans-serif" font-size="13" lengthAdjust="spacing" textLength="6.5" x="327.349" y="1163.3037">*</text></g><!--link apoint25 to OrderProduct--><g class="link" data-entity-1="ent0026" data-entity-2="ent0011" data-link-type="association" data-source-line="103" id="lnk29"><path d="M128.21,1011.2 C139.61,1011.2 151,1011.2 162.4,1011.2" fill="none" id="apoint25-OrderProduct" style="stroke:#181818;stroke-width:1;stroke-dasharray:7,7;"/></g><?plantuml-src dLHDKzim4BtxL-oabrObAVIOOPY1m2675WRQ4-MWM1jRHPPKIKv8AV-zQpanSkBET3Xa9lEqRp_UsxL_bDfonol85VV-F0Gd5tN0UMxqdVoDS9pvBgHmfhPpNQAJWUiSuNEMHHfyz-ZWEGFuk9JEXw-ymYdSKIvTD235761OSQbIm5AYjN4YnO9vHBq3uFvuCZbvwF2h9oiT3z9Gn2KFcBpp5G_S3H2v40wzxzKrFd0rCwBNdYsDVWLUTeDUhtMSj0DcjG-cwcEtI1bhntLeDT5xemlqkPEsxVpjBTPE3T1zAQqbQ4OSId9fweN2vk4JNw7Z1TwXMyaSlqXDFdSHIOQUCmdUaoJ1bIdC04nhOkOL5HngCl1GK-qhNLVmRBII6e_0B9VnpmzDssWyYYC8M5dZk9DgiyLUXdIUaVs5SPi1lRle4MCpKrNIUzATiH5mSgy3MYPZ3PUnL6R6BBeSTQ1HcfUjebtU6sT4dR_9Qkl8YDGZ-G-zw2oGrdckQKpQjTwYIyKNKicmcSA5CGgvFkZjV-IvRagq0Rb38eZpqDxLrZ2NGAcLfCm0B519shT1oi7O0oi_lCRzRdlA_wff3w8AMvNYYMX2RdhbA4NyMft-6O-xwqsWUE6PDjGnRGNjuoEyKx8eG-4u9N_EJMKL1bfN8VrF8tMWZDrNO7nVIY5GFxY6iikMjP-DSGkUfH-8ALHSa-aUpf8iky3Mb2bOnVCOaYNKhfOmQqt1MpcodIpxxp5PByFeP0GqyeYEOKUQ0YcnYhM60tSjRGtUQwhRj8JHctQ1okZ2VpDmIhAzdb-ClryO9Hu6M8nnQvMaje9XZ4gc_f3HZ5tSdZJ7EGyWFT0hSANC6WKHmAzboClcNoWHbWwn4LG34UMomHm2fny-IH-Qmuldve5h4HbvxHnjUKkYz9PBCTbM_TnKFTTWeiCv1T3NR0CbVMpf7u9x7OEwA84tLMCBUJVy94Egr8oKPViNEsXHJyJMa2RW84xgNDKYcla-XXtj7Z_0PD8xehy0?></g></svg>